<svg width="268" height="47" viewBox="0 0 268 47" fill="none" xmlns="http://www.w3.org/2000/svg">
<circle cx="22.7965" cy="22.7965" r="22.7965" fill="rgba(129, 133, 255, 1)"/>
<path d="M26.8673 6.92039C32.0779 4.64075 34.4661 9.22718 35.0088 11.8053C37.0442 10.177 42.092 6.92039 46 6.92039C50.8849 6.92039 46.8141 11.8053 46 12.2123C45.3487 12.5379 42.472 16.1474 41.115 17.9114H38.6725C37.6956 14.9805 34.1947 13.4336 32.5664 13.0265C29.9882 13.8406 23.692 16.6902 19.1327 21.5752C14.5734 26.4601 20.2183 32.2949 23.6106 34.6017C26.7315 36.23 33.869 38.1026 37.4513 32.5663C45.9186 38.4283 47.2212 43.9645 46.8141 45.9999H7.32743C7.32743 43.3946 13.8407 38.1297 17.0973 35.8229C17.0973 34.0589 15.5504 31.915 9.36283 37.4513C2.84955 38.7539 5.29203 34.7374 7.32743 32.5663L12.2124 28.4955C13.0265 27.5457 13.5965 25.076 9.36283 22.7964C10.177 19.1327 20.354 9.76995 26.8673 6.92039Z" fill="#303030" stroke="white"/>
<path d="M37.5065 33.3347L37.4513 33.3803C36.6372 34.0536 35.823 35.0087 34.1947 36.2299C32.892 37.2069 30.0587 37.0286 27.2744 36.2299C24.144 35.332 20.6255 32.8376 19.5398 31.345C17.9115 29.9879 15.697 26.3124 17.9766 22.4047C20.2563 18.497 27.8822 14.5345 31.4103 13.0417C32.7672 12.906 36.1324 13.6115 38.7377 17.5194C43.6226 16.2168 48.9147 19.1478 50.9501 20.7761C52.8498 22.5401 55.3629 26.46 49.7288 27.2894C44.8158 27.2894 39.9669 31.2998 37.5065 33.3347Z" fill="white" stroke="black"/>
<circle r="2.75664" transform="matrix(-1 0 0 1 28.4956 22.7967)" fill="#303030" stroke="black"/>
<path d="M66.875 34L68.9141 8.24805H77.6855L81.5176 21.625L82.5195 26.4062H82.8711L83.9609 21.625L87.7754 8.24805H97.1094L99.1484 34H92.4512L91.6074 16.668L91.5723 12.0273H91.1504L90.0605 16.5273L85.1387 33.4902H79.4609L74.5039 16.5625L73.3789 12.0273H72.9746L72.9395 16.6328L72.1309 34H66.875ZM120.682 32.0488C120.049 32.4941 119.398 32.8691 118.73 33.1738C118.074 33.4668 117.418 33.7012 116.762 33.877C116.105 34.0527 115.461 34.1758 114.828 34.2461C114.195 34.3164 113.586 34.3516 113 34.3516C111.5 34.3516 110.146 34.1523 108.939 33.7539C107.732 33.3438 106.707 32.7578 105.863 31.9961C105.02 31.2344 104.369 30.2969 103.912 29.1836C103.467 28.0703 103.244 26.7988 103.244 25.3691C103.244 23.752 103.525 22.3047 104.088 21.0273C104.65 19.7383 105.4 18.6543 106.338 17.7754C107.287 16.8848 108.383 16.2051 109.625 15.7363C110.867 15.2559 112.168 15.0156 113.527 15.0156C114.699 15.0156 115.777 15.1973 116.762 15.5605C117.758 15.9238 118.613 16.4629 119.328 17.1777C120.055 17.8809 120.617 18.7598 121.016 19.8145C121.414 20.8574 121.613 22.0645 121.613 23.4355C121.613 23.8809 121.59 24.291 121.543 24.666C121.508 25.041 121.461 25.3516 121.402 25.5977H109.52C109.52 26.418 109.66 27.1211 109.941 27.707C110.234 28.293 110.645 28.7793 111.172 29.166C111.711 29.541 112.355 29.8164 113.105 29.9922C113.855 30.168 114.693 30.2559 115.619 30.2559C115.947 30.2559 116.311 30.2441 116.709 30.2207C117.119 30.1973 117.541 30.1562 117.975 30.0977C118.42 30.0273 118.871 29.9453 119.328 29.8516C119.785 29.7461 120.236 29.6113 120.682 29.4473V32.0488ZM116.076 23.4531C116.076 22.6445 115.994 21.9473 115.83 21.3613C115.678 20.7754 115.461 20.2949 115.18 19.9199C114.898 19.5332 114.564 19.252 114.178 19.0762C113.791 18.8887 113.369 18.7949 112.912 18.7949C112.408 18.7949 111.945 18.9004 111.523 19.1113C111.113 19.3223 110.756 19.627 110.451 20.0254C110.158 20.4238 109.93 20.9102 109.766 21.4844C109.602 22.0586 109.52 22.7148 109.52 23.4531H116.076ZM138.225 19.3574C137.674 19.123 137.182 18.9707 136.748 18.9004C136.326 18.8301 135.98 18.7949 135.711 18.7949C134.914 18.7949 134.217 18.959 133.619 19.2871C133.033 19.6152 132.541 20.0605 132.143 20.623C131.756 21.1738 131.463 21.8184 131.264 22.5566C131.076 23.2949 130.982 24.0742 130.982 24.8945C130.982 25.6914 131.07 26.418 131.246 27.0742C131.422 27.7305 131.668 28.2988 131.984 28.7793C132.312 29.248 132.699 29.6113 133.145 29.8691C133.59 30.127 134.088 30.2559 134.639 30.2559C135.248 30.2559 135.869 30.1035 136.502 29.7988C137.135 29.4824 137.709 29.0547 138.225 28.5156V19.3574ZM138.225 5.83984H144.342V34H139.121L138.436 31.1172C138.002 31.5039 137.545 31.8906 137.064 32.2773C136.596 32.6641 136.092 33.0098 135.553 33.3145C135.025 33.6191 134.463 33.8652 133.865 34.0527C133.268 34.252 132.629 34.3516 131.949 34.3516C130.824 34.3516 129.816 34.1055 128.926 33.6133C128.035 33.1094 127.273 32.4473 126.641 31.627C126.02 30.7949 125.545 29.8516 125.217 28.7969C124.889 27.7422 124.725 26.6523 124.725 25.5273C124.725 24.543 124.848 23.5996 125.094 22.6973C125.34 21.7949 125.691 20.957 126.148 20.1836C126.605 19.3984 127.15 18.6895 127.783 18.0566C128.428 17.4238 129.137 16.8848 129.91 16.4395C130.695 15.9824 131.533 15.6309 132.424 15.3848C133.326 15.1387 134.264 15.0156 135.236 15.0156C135.834 15.0156 136.402 15.0566 136.941 15.1387C137.48 15.2207 137.908 15.3086 138.225 15.4023V5.83984ZM149.58 15.3672H155.68V34H149.58V15.3672ZM152.551 12.4316C152.023 12.4316 151.549 12.3555 151.127 12.2031C150.705 12.0508 150.342 11.8398 150.037 11.5703C149.744 11.3008 149.516 10.9844 149.352 10.6211C149.188 10.2578 149.105 9.86523 149.105 9.44336C149.105 9.00977 149.193 8.60547 149.369 8.23047C149.557 7.85547 149.809 7.52734 150.125 7.24609C150.441 6.96484 150.822 6.74219 151.268 6.57812C151.713 6.41406 152.199 6.33203 152.727 6.33203C153.242 6.33203 153.711 6.41406 154.133 6.57812C154.566 6.73047 154.93 6.94141 155.223 7.21094C155.527 7.48047 155.762 7.79687 155.926 8.16016C156.09 8.52344 156.172 8.91602 156.172 9.33789C156.172 9.77148 156.078 10.1758 155.891 10.5508C155.715 10.9258 155.469 11.2539 155.152 11.5352C154.836 11.8164 154.455 12.0391 154.01 12.2031C153.564 12.3555 153.078 12.4316 152.551 12.4316ZM176.316 19.6914C176.984 19.8672 177.652 20.125 178.32 20.4648C178.988 20.8047 179.586 21.2324 180.113 21.748C180.641 22.252 181.068 22.8496 181.396 23.541C181.725 24.2207 181.889 24.9941 181.889 25.8613C181.889 26.8926 181.625 27.8945 181.098 28.8672C180.582 29.8398 179.826 30.707 178.83 31.4688C177.846 32.2305 176.627 32.8457 175.174 33.3145C173.732 33.7715 172.08 34 170.217 34H161.516V8.24805H171.148C172.73 8.24805 174.119 8.39453 175.314 8.6875C176.521 8.96875 177.523 9.36719 178.32 9.88281C179.129 10.3867 179.738 10.9844 180.148 11.6758C180.559 12.3555 180.764 13.0879 180.764 13.873C180.764 14.5059 180.641 15.0977 180.395 15.6484C180.16 16.1875 179.838 16.6914 179.428 17.1602C179.029 17.6289 178.561 18.0742 178.021 18.4961C177.482 18.9062 176.914 19.3047 176.316 19.6914ZM167.721 30.168H170.709C171.494 30.168 172.186 30.0566 172.783 29.834C173.381 29.6113 173.879 29.3125 174.277 28.9375C174.676 28.5508 174.975 28.1172 175.174 27.6367C175.373 27.1445 175.473 26.6348 175.473 26.1074C175.473 25.4629 175.344 24.9121 175.086 24.4551C174.84 23.998 174.494 23.623 174.049 23.3301C173.615 23.0371 173.094 22.8262 172.484 22.6973C171.875 22.5566 171.219 22.4863 170.516 22.4863H167.721V30.168ZM172.818 18.918C173.346 18.5547 173.785 18.0684 174.137 17.459C174.5 16.8379 174.682 16.1406 174.682 15.3672C174.682 14.8633 174.582 14.4121 174.383 14.0137C174.195 13.6035 173.92 13.2578 173.557 12.9766C173.205 12.6836 172.771 12.4609 172.256 12.3086C171.752 12.1562 171.189 12.0801 170.568 12.0801H167.721V18.918H172.818ZM194.844 34.3516C193.238 34.3516 191.832 34.1055 190.625 33.6133C189.43 33.1094 188.434 32.4414 187.637 31.6094C186.84 30.7656 186.242 29.793 185.844 28.6914C185.457 27.5781 185.264 26.4121 185.264 25.1934C185.264 23.7754 185.521 22.4453 186.037 21.2031C186.553 19.9609 187.279 18.8828 188.217 17.9688C189.166 17.0547 190.309 16.334 191.645 15.8066C192.98 15.2793 194.469 15.0156 196.109 15.0156C197.703 15.0156 199.098 15.2617 200.293 15.7539C201.5 16.2461 202.502 16.9082 203.299 17.7402C204.096 18.5723 204.693 19.5508 205.092 20.6758C205.502 21.7891 205.707 22.9668 205.707 24.209C205.707 25.6621 205.443 27.0098 204.916 28.252C204.389 29.4824 203.645 30.5547 202.684 31.4688C201.734 32.3711 200.592 33.0801 199.256 33.5957C197.932 34.0996 196.461 34.3516 194.844 34.3516ZM195.6 30.5723C196.15 30.5723 196.654 30.4551 197.111 30.2207C197.58 29.9863 197.984 29.6348 198.324 29.166C198.664 28.6855 198.928 28.0938 199.115 27.3906C199.314 26.6875 199.414 25.8672 199.414 24.9297C199.414 24.0508 199.32 23.2363 199.133 22.4863C198.957 21.7363 198.693 21.0918 198.342 20.5527C198.002 20.002 197.58 19.5742 197.076 19.2695C196.584 18.9531 196.016 18.7949 195.371 18.7949C194.809 18.7949 194.293 18.9238 193.824 19.1816C193.355 19.4277 192.951 19.791 192.611 20.2715C192.283 20.752 192.025 21.3438 191.838 22.0469C191.65 22.75 191.557 23.5586 191.557 24.4727C191.557 25.3984 191.65 26.2363 191.838 26.9863C192.025 27.7363 192.295 28.3809 192.646 28.9199C192.998 29.4473 193.42 29.8574 193.912 30.1504C194.416 30.4316 194.979 30.5723 195.6 30.5723ZM219.945 31.3105C219.594 31.6035 219.195 31.9258 218.75 32.2773C218.305 32.6289 217.818 32.9629 217.291 33.2793C216.764 33.584 216.201 33.8359 215.604 34.0352C215.006 34.2461 214.373 34.3516 213.705 34.3516C212.896 34.3516 212.188 34.1992 211.578 33.8945C210.969 33.5781 210.459 33.168 210.049 32.6641C209.65 32.1602 209.346 31.5918 209.135 30.959C208.936 30.3262 208.836 29.6934 208.836 29.0605C208.836 28.1934 209.029 27.3789 209.416 26.6172C209.814 25.8555 210.43 25.1934 211.262 24.6309C212.094 24.0566 213.154 23.6055 214.443 23.2773C215.732 22.9492 217.268 22.7852 219.049 22.7852H219.734V21.6953C219.734 20.7461 219.441 20.0254 218.855 19.5332C218.27 19.041 217.484 18.7949 216.5 18.7949C216.066 18.7949 215.609 18.8477 215.129 18.9531C214.66 19.0586 214.186 19.2051 213.705 19.3926C213.225 19.5684 212.756 19.7793 212.299 20.0254C211.842 20.2715 211.414 20.5352 211.016 20.8164L210.699 20.6406L209.662 16.9316C211.174 16.2285 212.604 15.7363 213.951 15.4551C215.299 15.1621 216.623 15.0156 217.924 15.0156C219.037 15.0156 220.074 15.1211 221.035 15.332C222.008 15.543 222.846 15.8887 223.549 16.3691C224.264 16.8379 224.826 17.4531 225.236 18.2148C225.646 18.9766 225.852 19.9141 225.852 21.0273V28.5156C225.852 28.7266 225.869 28.9375 225.904 29.1484C225.939 29.3477 226.004 29.5293 226.098 29.6934C226.191 29.8574 226.32 29.9922 226.484 30.0977C226.648 30.2031 226.859 30.2559 227.117 30.2559C227.281 30.2559 227.439 30.2441 227.592 30.2207C227.756 30.1973 227.938 30.1445 228.137 30.0625V32.6641C227.375 33.1914 226.613 33.6074 225.852 33.9121C225.09 34.2051 224.352 34.3516 223.637 34.3516C222.711 34.3516 221.949 34.0879 221.352 33.5605C220.754 33.0332 220.285 32.2832 219.945 31.3105ZM219.734 24.9297H219.066C218.141 24.9297 217.373 25 216.764 25.1406C216.166 25.2695 215.686 25.457 215.322 25.7031C214.971 25.9492 214.725 26.248 214.584 26.5996C214.443 26.9395 214.373 27.3262 214.373 27.7598C214.373 28.2051 214.438 28.5859 214.566 28.9023C214.695 29.207 214.865 29.4648 215.076 29.6758C215.299 29.875 215.551 30.0215 215.832 30.1152C216.125 30.209 216.43 30.2559 216.746 30.2559C217.18 30.2559 217.643 30.168 218.135 29.9922C218.639 29.8047 219.172 29.4766 219.734 29.0078V24.9297ZM231.424 15.3672H236.574L237.312 20.834C237.5 20.4941 237.688 20.1484 237.875 19.7969C238.074 19.4453 238.256 19.123 238.42 18.8301C238.596 18.5254 238.748 18.2617 238.877 18.0391C239.018 17.8164 239.117 17.6523 239.176 17.5469C239.398 17.1836 239.65 16.8496 239.932 16.5449C240.213 16.2285 240.523 15.959 240.863 15.7363C241.203 15.5137 241.584 15.3379 242.006 15.209C242.428 15.0801 242.896 15.0156 243.412 15.0156C243.752 15.0156 244.121 15.0625 244.52 15.1562C244.93 15.2383 245.305 15.3789 245.645 15.5781L244.977 21.0625C244.871 21.0391 244.73 21.0215 244.555 21.0098C244.379 20.9863 244.191 20.9688 243.992 20.957C243.805 20.9453 243.617 20.9395 243.43 20.9395C243.254 20.9277 243.096 20.9219 242.955 20.9219C241.771 20.9219 240.711 21.1504 239.773 21.6074C238.848 22.0645 238.098 22.6504 237.523 23.3652V34H231.424V15.3672ZM260.99 19.3574C260.439 19.123 259.947 18.9707 259.514 18.9004C259.092 18.8301 258.746 18.7949 258.477 18.7949C257.68 18.7949 256.982 18.959 256.385 19.2871C255.799 19.6152 255.307 20.0605 254.908 20.623C254.521 21.1738 254.229 21.8184 254.029 22.5566C253.842 23.2949 253.748 24.0742 253.748 24.8945C253.748 25.6914 253.836 26.418 254.012 27.0742C254.188 27.7305 254.434 28.2988 254.75 28.7793C255.078 29.248 255.465 29.6113 255.91 29.8691C256.355 30.127 256.854 30.2559 257.404 30.2559C258.014 30.2559 258.635 30.1035 259.268 29.7988C259.9 29.4824 260.475 29.0547 260.99 28.5156V19.3574ZM260.99 5.83984H267.107V34H261.887L261.201 31.1172C260.768 31.5039 260.311 31.8906 259.83 32.2773C259.361 32.6641 258.857 33.0098 258.318 33.3145C257.791 33.6191 257.229 33.8652 256.631 34.0527C256.033 34.252 255.395 34.3516 254.715 34.3516C253.59 34.3516 252.582 34.1055 251.691 33.6133C250.801 33.1094 250.039 32.4473 249.406 31.627C248.785 30.7949 248.311 29.8516 247.982 28.7969C247.654 27.7422 247.49 26.6523 247.49 25.5273C247.49 24.543 247.613 23.5996 247.859 22.6973C248.105 21.7949 248.457 20.957 248.914 20.1836C249.371 19.3984 249.916 18.6895 250.549 18.0566C251.193 17.4238 251.902 16.8848 252.676 16.4395C253.461 15.9824 254.299 15.6309 255.189 15.3848C256.092 15.1387 257.029 15.0156 258.002 15.0156C258.6 15.0156 259.168 15.0566 259.707 15.1387C260.246 15.2207 260.674 15.3086 260.99 15.4023V5.83984Z" fill="white"/>
</svg>
